<svg width="26" height="26" viewBox="0 0 26 26" fill="none" xmlns="http://www.w3.org/2000/svg">
<path fill-rule="evenodd" clip-rule="evenodd" d="M13 2C6.92487 2 2 6.92487 2 13C2 19.0751 6.92487 24 13 24C19.0751 24 24 19.0751 24 13C24 6.92487 19.0751 2 13 2ZM0 13C0 5.8203 5.8203 0 13 0C20.1797 0 26 5.8203 26 13C26 20.1797 20.1797 26 13 26C5.8203 26 0 20.1797 0 13Z" fill="#1100FF"/>
<path d="M8.5 12C9.32843 12 10 11.3284 10 10.5C10 9.67157 9.32843 9 8.5 9C7.67157 9 7 9.67157 7 10.5C7 11.3284 7.67157 12 8.5 12Z" fill="#1100FF"/>
<path d="M17.5 12C18.3284 12 19 11.3284 19 10.5C19 9.67157 18.3284 9 17.5 9C16.6716 9 16 9.67157 16 10.5C16 11.3284 16.6716 12 17.5 12Z" fill="#1100FF"/>
<path fill-rule="evenodd" clip-rule="evenodd" d="M7.29796 15.1351C7.77562 14.8578 8.38758 15.0203 8.66483 15.4979C9.10555 16.2572 9.73795 16.8874 10.4987 17.3255C11.2595 17.7635 12.1221 17.9941 13 17.9941C13.8779 17.9941 14.7404 17.7635 15.5012 17.3255C16.262 16.8874 16.8944 16.2572 17.3351 15.4979C17.6124 15.0203 18.2243 14.8578 18.702 15.1351C19.1796 15.4123 19.3421 16.0243 19.0648 16.5019C18.4483 17.5641 17.5635 18.4458 16.4992 19.0587C15.4348 19.6715 14.2282 19.9941 13 19.9941C11.7718 19.9941 10.5651 19.6715 9.50076 19.0587C8.4364 18.4458 7.55166 17.5641 6.9351 16.5019C6.65786 16.0243 6.82031 15.4123 7.29796 15.1351Z" fill="#1100FF"/>
</svg>
